<svg xmlns="http://www.w3.org/2000/svg" xmlns:xlink="http://www.w3.org/1999/xlink" width="500" zoomAndPan="magnify" viewBox="0 0 375 374.999991" height="500" preserveAspectRatio="xMidYMid meet" version="1.0"><defs><clipPath id="b2c10c3210"><path d="M 163.46875 24.316406 L 211.53125 24.316406 L 211.53125 72.378906 L 163.46875 72.378906 Z M 163.46875 24.316406 " clip-rule="nonzero"/></clipPath><clipPath id="71ed4dc48a"><path d="M 187.5 24.316406 C 174.226562 24.316406 163.46875 35.078125 163.46875 48.347656 C 163.46875 61.621094 174.226562 72.378906 187.5 72.378906 C 200.773438 72.378906 211.53125 61.621094 211.53125 48.347656 C 211.53125 35.078125 200.773438 24.316406 187.5 24.316406 Z M 187.5 24.316406 " clip-rule="nonzero"/></clipPath></defs><rect x="-37.5" width="450" fill="#ffffff" y="-37.499999" height="449.999989" fill-opacity="1"/><rect x="-37.5" width="450" fill="#ffffff" y="-37.499999" height="449.999989" fill-opacity="1"/><g clip-path="url(#b2c10c3210)"><g clip-path="url(#71ed4dc48a)"><path fill="#1f1f1f" d="M 163.46875 24.316406 L 211.53125 24.316406 L 211.53125 72.378906 L 163.46875 72.378906 Z M 163.46875 24.316406 " fill-opacity="1" fill-rule="nonzero"/></g></g><path fill="#000000" d="M 187.5 0.21875 C 184.429688 0.222656 181.363281 0.300781 178.296875 0.453125 C 175.230469 0.609375 172.167969 0.835938 169.113281 1.140625 C 166.058594 1.445312 163.015625 1.824219 159.976562 2.277344 C 156.941406 2.730469 153.917969 3.257812 150.90625 3.855469 C 147.898438 4.457031 144.902344 5.132812 141.925781 5.878906 C 138.949219 6.628906 135.992188 7.449219 133.054688 8.339844 C 130.117188 9.234375 127.203125 10.199219 124.316406 11.234375 C 121.425781 12.269531 118.5625 13.375 115.726562 14.550781 C 112.890625 15.726562 110.085938 16.96875 107.3125 18.285156 C 104.535156 19.597656 101.796875 20.976562 99.089844 22.425781 C 96.382812 23.871094 93.714844 25.382812 91.082031 26.960938 C 88.449219 28.542969 85.855469 30.183594 83.304688 31.886719 C 80.75 33.59375 78.242188 35.359375 75.777344 37.1875 C 73.3125 39.015625 70.894531 40.902344 68.519531 42.851562 C 66.148438 44.796875 63.824219 46.800781 61.550781 48.859375 C 59.273438 50.921875 57.050781 53.035156 54.882812 55.207031 C 52.710938 57.375 50.59375 59.597656 48.53125 61.871094 C 46.46875 64.144531 44.464844 66.464844 42.519531 68.835938 C 40.570312 71.207031 38.679688 73.625 36.851562 76.089844 C 35.023438 78.554688 33.253906 81.058594 31.550781 83.609375 C 29.84375 86.160156 28.199219 88.75 26.621094 91.382812 C 25.042969 94.015625 23.527344 96.683594 22.078125 99.386719 C 20.632812 102.09375 19.25 104.832031 17.9375 107.605469 C 16.621094 110.375 15.378906 113.179688 14.199219 116.015625 C 13.023438 118.847656 11.917969 121.707031 10.882812 124.597656 C 9.847656 127.484375 8.882812 130.394531 7.988281 133.332031 C 7.09375 136.265625 6.273438 139.222656 5.527344 142.199219 C 4.777344 145.171875 4.101562 148.164062 3.5 151.171875 C 2.898438 154.183594 2.371094 157.203125 1.917969 160.238281 C 1.464844 163.273438 1.085938 166.316406 0.785156 169.371094 C 0.480469 172.421875 0.25 175.480469 0.0976562 178.542969 C -0.0585938 181.609375 -0.136719 184.675781 -0.140625 187.742188 C 10.167969 436.519531 364.867188 436.445312 375.140625 187.742188 C 375.136719 184.671875 375.058594 181.609375 374.90625 178.542969 C 374.75 175.480469 374.519531 172.421875 374.21875 169.367188 C 373.914062 166.316406 373.535156 163.269531 373.082031 160.238281 C 372.628906 157.203125 372.101562 154.179688 371.5 151.171875 C 370.898438 148.164062 370.222656 145.171875 369.476562 142.195312 C 368.726562 139.222656 367.90625 136.265625 367.011719 133.332031 C 366.117188 130.394531 365.15625 127.484375 364.117188 124.59375 C 363.082031 121.707031 361.976562 118.847656 360.800781 116.011719 C 359.625 113.179688 358.378906 110.375 357.0625 107.601562 C 355.75 104.832031 354.367188 102.089844 352.921875 99.386719 C 351.472656 96.679688 349.957031 94.011719 348.378906 91.382812 C 346.800781 88.75 345.15625 86.160156 343.449219 83.609375 C 341.746094 81.058594 339.976562 78.550781 338.148438 76.089844 C 336.320312 73.625 334.429688 71.207031 332.480469 68.835938 C 330.535156 66.464844 328.527344 64.140625 326.46875 61.867188 C 324.40625 59.597656 322.289062 57.375 320.117188 55.207031 C 317.949219 53.035156 315.726562 50.921875 313.449219 48.859375 C 311.175781 46.800781 308.851562 44.796875 306.480469 42.851562 C 304.105469 40.902344 301.6875 39.015625 299.222656 37.1875 C 296.757812 35.359375 294.25 33.59375 291.695312 31.886719 C 289.144531 30.183594 286.550781 28.539062 283.917969 26.960938 C 281.285156 25.382812 278.617188 23.871094 275.910156 22.425781 C 273.203125 20.976562 270.460938 19.597656 267.6875 18.285156 C 264.914062 16.96875 262.109375 15.726562 259.273438 14.550781 C 256.4375 13.375 253.574219 12.269531 250.683594 11.234375 C 247.796875 10.199219 244.882812 9.234375 241.945312 8.339844 C 239.007812 7.449219 236.050781 6.628906 233.074219 5.878906 C 230.097656 5.132812 227.101562 4.457031 224.089844 3.855469 C 221.082031 3.257812 218.058594 2.730469 215.023438 2.277344 C 211.984375 1.824219 208.941406 1.445312 205.886719 1.140625 C 202.832031 0.835938 199.769531 0.609375 196.703125 0.453125 C 193.636719 0.300781 190.570312 0.222656 187.5 0.21875 Z M 246.523438 309.164062 C 145.703125 311.363281 57.5 218.347656 65.414062 117.640625 C 63.917969 79.171875 102.78125 58.324219 136.328125 68.378906 C 136.886719 68.535156 137.414062 68.761719 137.90625 69.070312 C 138.398438 69.375 138.835938 69.742188 139.222656 70.175781 C 139.605469 70.605469 139.925781 71.085938 140.171875 71.609375 C 140.417969 72.132812 140.589844 72.679688 140.675781 73.25 L 152.90625 150.332031 C 152.59375 159.703125 136.875 164.664062 129.308594 167.039062 C 130.847656 171.550781 132.640625 175.960938 134.683594 180.265625 C 136.730469 184.574219 139.011719 188.75 141.535156 192.796875 C 144.054688 196.84375 146.800781 200.730469 149.765625 204.460938 C 152.734375 208.195312 155.90625 211.746094 159.277344 215.117188 C 162.652344 218.484375 166.207031 221.652344 169.941406 224.613281 C 173.679688 227.578125 177.570312 230.320312 181.621094 232.835938 C 185.671875 235.355469 189.851562 237.632812 194.160156 239.675781 C 198.472656 241.714844 202.882812 243.503906 207.398438 245.039062 C 209.859375 237.160156 214.660156 221.765625 224.046875 221.433594 L 301.179688 233.648438 C 305.734375 234.019531 306.527344 239.839844 307.800781 243.207031 C 318.804688 281.777344 284.207031 313.855469 246.523438 309.164062 Z M 246.523438 309.164062 " fill-opacity="1" fill-rule="nonzero"/></svg>